<?xml version="1.0" encoding="UTF-8" standalone="no"?>
<!-- Created with Inkscape (http://www.inkscape.org/) -->

<svg
   xmlns:dc="http://purl.org/dc/elements/1.1/"
   xmlns:cc="http://creativecommons.org/ns#"
   xmlns:rdf="http://www.w3.org/1999/02/22-rdf-syntax-ns#"
   xmlns:svg="http://www.w3.org/2000/svg"
   xmlns="http://www.w3.org/2000/svg"
   xmlns:sodipodi="http://sodipodi.sourceforge.net/DTD/sodipodi-0.dtd"
   xmlns:inkscape="http://www.inkscape.org/namespaces/inkscape"
   width="100"
   height="100"
   viewBox="0 0 26.458333 26.458334"
   version="1.1"
   id="svg8"
   inkscape:version="0.92.2 (5c3e80d, 2017-08-06)"
   sodipodi:docname="crossroad-logo.svg">
  <defs
     id="defs2" />
  <sodipodi:namedview
     id="base"
     pagecolor="#ffffff"
     bordercolor="#666666"
     borderopacity="1.0"
     inkscape:pageopacity="0.0"
     inkscape:pageshadow="2"
     inkscape:zoom="2"
     inkscape:cx="-58.360726"
     inkscape:cy="36.037003"
     inkscape:document-units="mm"
     inkscape:current-layer="layer1"
     showgrid="false"
     inkscape:window-width="1366"
     inkscape:window-height="705"
     inkscape:window-x="-8"
     inkscape:window-y="-8"
     inkscape:window-maximized="1"
     units="px" />
  <metadata
     id="metadata5">
    <rdf:RDF>
      <cc:Work
         rdf:about="">
        <dc:format>image/svg+xml</dc:format>
        <dc:type
           rdf:resource="http://purl.org/dc/dcmitype/StillImage" />
        <dc:title />
      </cc:Work>
    </rdf:RDF>
  </metadata>
  <g
     inkscape:label="Layer 1"
     inkscape:groupmode="layer"
     id="layer1"
     transform="translate(0,-270.54165)">
    <g
       id="g880">
      <path
         sodipodi:nodetypes="ccccsccccccsscccccsssccscsccsscscsscccssccsccssssccc"
         style="fill:#a0ced4;fill-opacity:1;stroke-width:0.06672207"
         d="m 11.881691,288.18034 c -0.780566,-0.17127 -1.504754,-0.48207 -2.0250544,-0.9915 1.0585604,0.30489 2.0037844,0.44222 2.7256364,0.44668 0.84537,0.004 1.088232,-0.0187 1.563509,-0.14782 1.218863,-0.33106 2.184529,-0.92515 3.156535,-1.94197 1.047756,-1.09605 1.547053,-2.11101 1.72115,-3.49871 0.129146,-1.02941 0.02199,-1.88091 -0.338203,-2.68734 -0.565842,-1.26687 -1.533902,-2.11664 -2.91781,-2.56127 -1.351336,-0.43416 -2.448813,-0.16091 -3.490302,0.86901 -0.5004,0.49484 -0.75097,0.95346 -0.893727,1.63576 -0.08529,0.40764 -0.08536,0.51794 -5.69e-4,0.8835 0.215168,0.92779 0.745405,1.58945 1.598353,1.99451 1.444456,0.68597 2.854158,-0.0614 3.109777,-1.64862 0.113363,-0.70391 -0.05949,-1.25585 -0.525,-1.67641 -0.398678,-0.36018 -0.776657,-0.47804 -1.414703,-0.4411 -0.664617,0.0632 -0.960174,0.30717 -1.337165,0.65353 0.230778,-0.79451 1.168133,-1.22547 1.903291,-1.23337 0.693117,-10e-4 1.117065,0.19622 1.679529,0.78249 0.763191,0.79548 0.988445,1.98767 0.589305,3.11895 -0.370287,1.04951 -1.397691,1.88747 -2.675931,2.18253 -0.946876,0.21857 -1.668805,0.12566 -2.667274,-0.34328 -1.108954,-0.52083 -1.9301657,-1.48057 -2.3723578,-2.77255 -0.1862737,-0.54425 -0.2192832,-0.73913 -0.2334985,-1.37848 -0.032898,-1.47982 0.3502356,-2.55019 1.3095923,-3.65864 1.219534,-1.40907 2.639902,-1.9652 4.452047,-2.01978 2.537633,0.26435 5.808068,2.88789 6.33178,5.28444 0.05917,0.27076 0.35077,0.81579 0.381885,0.85065 0.11535,0.12925 0.170453,-1.61424 0.03453,-2.28121 -0.493771,-2.42298 -1.891891,-4.46763 -3.991186,-5.51665 -0.56171,-0.28069 -1.73297,-0.67287 -2.38288,-0.80456 -0.790996,-0.16028 -2.401585,-0.0812 -3.311477,0.14755 -2.167857,0.54496 -4.1300723,1.66959 -4.89028,2.84342 -0.2620104,0.40457 -0.4855324,1.79632 -0.5961786,2.53201 -0.1106462,0.73568 -0.1286029,1.0131 -0.076578,1.69573 0.2296129,3.01281 2.1186612,5.91817 4.5180846,6.88734 1.869528,0.75514 4.199871,0.24323 6.286199,-1.3809 0.143254,-0.11152 0.264084,-0.26611 0.24328,-0.18337 -0.0208,0.0827 -0.183244,0.40283 -0.356362,0.63313 -0.496979,0.66113 -1.628538,1.47554 -2.596774,1.86897 -1.390571,0.56504 -3.093254,0.58022 -4.6003445,0.041 -1.7211765,-0.61581 -3.5410584,-2.27112 -4.3549086,-3.50881 -0.6517185,-1.48251 -0.9223442,-4.30803 -0.9223442,-4.30803 0,0 1.7226924,-4.60825 4.1971533,-6.23664 1.139009,-0.74956 1.986148,-0.90834 3.402826,-1.23079 0.734339,-0.16714 2.469063,-0.20005 3.402825,-0.0302 1.727154,0.31418 2.80573,0.8576 3.937896,1.9409 0.591494,0.56597 1.09513,1.01067 1.460524,1.87887 0.612157,1.45453 0.772746,2.40423 0.956803,3.59337 0.337889,2.183 -0.293932,4.15115 -1.680291,5.99374 -1.420366,1.88778 -2.673656,2.91155 -4.957312,3.45525 -0.874626,0.20823 -3.049119,0.31369 -3.049119,0.31369 z"
         id="path845"
         inkscape:connector-curvature="0" />
      <path
         sodipodi:nodetypes="ccccsscscccscscsscczzcsccsscscscscc"
         style="opacity:1;fill:#6ab3c6;fill-opacity:1;stroke-width:0.06672207"
         d="m 12.186575,288.22537 c 1.160179,-0.11889 2.256895,-0.34379 3.241324,-0.74428 1.109375,-0.46183 2.249108,-1.3486 2.995431,-2.33059 0.463465,-0.60981 1.024364,-1.77782 1.238447,-2.57894 0.326157,-1.45901 0.22529,-3.03236 -0.235602,-4.30101 -0.635174,-1.7484 -1.874704,-3.14978 -3.553374,-3.99393 -0.3211,-0.16147 -0.963672,-0.48348 -1.07398,-0.53016 0.325675,-0.0201 1.141096,0.0511 1.639051,0.17758 0.767733,0.19504 1.032853,0.30507 1.468303,0.51549 0.997932,0.68143 2.951932,2.96962 3.244685,4.02606 0.07451,0.26888 0.171618,0.7998 0.215792,1.17983 0.04418,0.38002 0.102777,0.69096 0.130228,0.69096 0.173594,0 0.193924,-1.97959 0.02843,-2.76897 -0.63427,-3.02546 -2.436638,-5.02173 -5.379395,-5.95813 -0.345333,-0.10989 -0.808025,-0.23881 -1.028208,-0.28649 -0.559062,-0.12107 -1.938315,-0.10493 -2.702244,0.0316 -1.384599,0.24748 -3.1521871,0.99628 -4.1930028,1.77627 -0.5940689,0.4452 -1.3231959,1.19613 -1.4189215,1.89076 -0.2038386,0.50776 -0.3263556,1.27446 -0.4285253,1.78067 -0.2442104,0.53984 -0.3386979,0.56527 -0.5645721,1.27835 -0.2258743,0.71308 -0.3908628,1.39116 -0.4624659,2.22263 -0.071603,0.83147 0.04087,2.00187 0.089634,2.55211 -0.1611984,-0.24941 -0.6295633,-1.23161 -0.8053132,-1.92878 -0.104397,-0.41412 -0.1443627,-0.6427 -0.1784487,-0.87502 8.858e-4,-0.49534 0.040054,-1.59956 0.1187462,-2.01596 0.3283717,-1.73759 1.3891301,-3.41358 3.0339552,-4.79361 2.1531368,-1.80652 4.3942961,-2.57781 6.9106591,-2.37827 2.438128,0.19334 4.338747,1.10499 5.606164,2.68907 0.598734,0.74832 1.013135,1.50122 1.369135,2.72785 0.443457,1.52796 0.386443,1.79455 0.456752,2.60469 0.146152,1.68403 -0.795371,4.00594 -1.638817,5.44609 -0.39607,0.67627 -1.527146,2.04006 -1.527146,2.04006 0,0 -0.405667,0.3578 -1.003621,0.7005 -0.876611,0.50242 -1.811492,0.83427 -2.766983,1.02567 -1.337337,0.22517 -2.472332,0.16044 -2.826121,0.12788 z"
         id="path843"
         inkscape:connector-curvature="0" />
      <path
         sodipodi:nodetypes="ssccsccssssczzccsssscccs"
         style="opacity:1;fill:#4ba3bb;fill-opacity:1;stroke-width:0.06672207"
         d="m 19.68426,284.92083 c 1.081458,-1.93143 1.388472,-5.32402 0.215169,-7.76676 -0.523585,-1.09007 -1.083754,-1.89795 -1.993254,-2.71454 0.636155,0.31901 0.838138,0.47825 1.130644,0.69876 0.62614,0.48578 1.237654,1.05177 1.747051,2.11571 0.420147,0.87752 0.555931,1.41928 0.715077,2.32622 0.121612,-0.60217 0.02934,-1.61883 -0.101873,-2.20347 -0.424674,-1.86121 -1.427165,-3.39444 -2.716624,-4.40564 -0.869875,-0.68217 -2.501506,-1.38262 -3.655502,-1.56856 -0.748075,-0.12054 -2.323668,-0.0569 -3.154991,0.15192 -1.168746,0.29359 -2.5753789,0.94282 -3.4447532,1.52973 -0.8639236,0.58322 -1.3241981,1.16304 -1.6216611,1.93724 -0.279429,0.33979 -0.6712828,0.69385 -1.1299914,1.37995 -0.4587083,0.68609 -0.6168655,1.13868 -0.8216339,1.7511 -0.2047685,0.61242 -0.3804735,1.24806 -0.3980658,1.89891 -0.1663489,-0.65913 -0.101846,-1.64401 0.1505198,-2.54044 0.5649667,-1.95898 1.6719162,-3.82311 4.3324509,-5.46101 2.2077327,-1.35913 5.3250567,-1.65547 7.8825037,-0.83812 1.824903,0.58324 3.372374,1.97836 4.112676,3.34085 0.472627,0.86984 0.6933,1.34799 1.034086,3.29135 0.172119,0.98152 0.142946,2.6247 -0.0327,3.27554 -0.19566,1.01167 -0.665822,2.19333 -1.287817,3.12406 -0.484229,0.78213 -1.282573,1.61095 -1.862274,2.12769 0.322688,-0.47873 0.466736,-0.675 0.90096,-1.45049 z"
         id="path841"
         inkscape:connector-curvature="0" />
      <g
         id="text832"
         style="font-style:normal;font-variant:normal;font-weight:600;font-stretch:normal;font-size:4.27021217px;line-height:1.25;font-family:Inter;-inkscape-font-specification:'Inter, Semi-Bold';font-variant-ligatures:normal;font-variant-caps:normal;font-variant-numeric:normal;font-feature-settings:normal;text-align:start;letter-spacing:0px;word-spacing:0px;writing-mode:lr-tb;text-anchor:start;fill:#1082a7;fill-opacity:1;stroke:none;stroke-width:0.10787255"
         aria-label="CROSSROAD">
        <path
           id="path827"
           style="font-style:normal;font-variant:normal;font-weight:600;font-stretch:normal;font-size:4.27021217px;font-family:Inter;-inkscape-font-specification:'Inter, Semi-Bold';font-variant-ligatures:normal;font-variant-caps:normal;font-variant-numeric:normal;font-feature-settings:normal;text-align:start;writing-mode:lr-tb;text-anchor:start;fill:#1082a7;fill-opacity:1;stroke-width:0.10787255"
           d="m 2.7371211,291.32758 c -0.095534,-0.68997 -0.6262776,-1.0903 -1.314728,-1.0903 C 0.61111346,290.23728 0,290.82868 0,291.83254 c 0,1.00235 0.6035314,1.59526 1.4223931,1.59526 0.738492,0 1.2282926,-0.47766 1.314728,-1.07058 l -0.5671376,-0.003 c -0.071271,0.36393 -0.3684877,0.56865 -0.7400083,0.56865 -0.50344835,0 -0.86435406,-0.37759 -0.86435406,-1.0903 0,-0.70058 0.35787289,-1.0903 0.86587046,-1.0903 0.3775862,0 0.6732863,0.21382 0.7384919,0.58534 z" />
        <path
           id="path829"
           style="font-style:normal;font-variant:normal;font-weight:600;font-stretch:normal;font-size:4.27021217px;font-family:Inter;-inkscape-font-specification:'Inter, Semi-Bold';font-variant-ligatures:normal;font-variant-caps:normal;font-variant-numeric:normal;font-feature-settings:normal;text-align:start;writing-mode:lr-tb;text-anchor:start;fill:#1082a7;fill-opacity:1;stroke-width:0.10787255"
           d="M 3.2564916,293.38535 H 3.81908 v -1.13731 h 0.5732032 l 0.609597,1.13731 h 0.627794 l -0.6717699,-1.23133 c 0.3654549,-0.14709 0.5580391,-0.45947 0.5580391,-0.88103 0,-0.59292 -0.3821355,-0.99325 -1.0948484,-0.99325 H 3.2564916 Z M 3.81908,291.78098 v -1.03116 h 0.5155796 c 0.4200457,0 0.6080806,0.19259 0.6080806,0.52317 0,0.33057 -0.1880349,0.50799 -0.6050478,0.50799 z" />
        <path
           id="path831"
           style="font-style:normal;font-variant:normal;font-weight:600;font-stretch:normal;font-size:4.27021217px;font-family:Inter;-inkscape-font-specification:'Inter, Semi-Bold';font-variant-ligatures:normal;font-variant-caps:normal;font-variant-numeric:normal;font-feature-settings:normal;text-align:start;writing-mode:lr-tb;text-anchor:start;fill:#1082a7;fill-opacity:1;stroke-width:0.10787255"
           d="m 8.8088293,291.83254 c 0,-1.00386 -0.6126299,-1.59526 -1.4269423,-1.59526 -0.8158289,0 -1.4269424,0.5914 -1.4269424,1.59526 0,1.00235 0.6111135,1.59526 1.4269424,1.59526 0.8143124,0 1.4269423,-0.5914 1.4269423,-1.59526 z m -0.5656211,0 c 0,0.70665 -0.3548401,1.0903 -0.8613212,1.0903 -0.5049648,0 -0.8613213,-0.38365 -0.8613213,-1.0903 0,-0.70665 0.3563565,-1.0903 0.8613213,-1.0903 0.5064811,0 0.8613212,0.38365 0.8613212,1.0903 z" />
        <path
           id="path833"
           style="font-style:normal;font-variant:normal;font-weight:600;font-stretch:normal;font-size:4.27021217px;font-family:Inter;-inkscape-font-specification:'Inter, Semi-Bold';font-variant-ligatures:normal;font-variant-caps:normal;font-variant-numeric:normal;font-feature-settings:normal;text-align:start;writing-mode:lr-tb;text-anchor:start;fill:#1082a7;fill-opacity:1;stroke-width:0.10787255"
           d="m 11.032646,291.13348 h 0.541358 c -0.01061,-0.52468 -0.457956,-0.8962 -1.119111,-0.8962 -0.6520562,0 -1.1418568,0.36697 -1.1403404,0.91591 0,0.44582 0.3169298,0.7021 0.8279604,0.83402 l 0.353323,0.091 c 0.335127,0.0849 0.556523,0.18955 0.55804,0.43066 -0.0015,0.26537 -0.253241,0.44279 -0.620212,0.44279 -0.351808,0 -0.6247616,-0.1577 -0.6475077,-0.48373 H 9.2326664 c 0.022746,0.61718 0.4822186,0.96443 1.2055466,0.96443 0.744557,0 1.176734,-0.37152 1.178251,-0.91894 -0.0015,-0.53833 -0.445825,-0.78398 -0.912879,-0.89468 l -0.291151,-0.0728 c -0.254757,-0.0607 -0.5307439,-0.16832 -0.527711,-0.42763 0.00152,-0.23353 0.210781,-0.40488 0.562588,-0.40488 0.335127,0 0.556523,0.15619 0.585335,0.42005 z" />
        <path
           id="path835"
           style="font-style:normal;font-variant:normal;font-weight:600;font-stretch:normal;font-size:4.27021217px;font-family:Inter;-inkscape-font-specification:'Inter, Semi-Bold';font-variant-ligatures:normal;font-variant-caps:normal;font-variant-numeric:normal;font-feature-settings:normal;text-align:start;writing-mode:lr-tb;text-anchor:start;fill:#1082a7;fill-opacity:1;stroke-width:0.10787255"
           d="m 13.801611,291.13348 h 0.541358 c -0.01061,-0.52468 -0.457956,-0.8962 -1.119111,-0.8962 -0.652056,0 -1.141857,0.36697 -1.140341,0.91591 0,0.44582 0.31693,0.7021 0.827961,0.83402 l 0.353323,0.091 c 0.335127,0.0849 0.556523,0.18955 0.558039,0.43066 -0.0015,0.26537 -0.25324,0.44279 -0.620212,0.44279 -0.351807,0 -0.624761,-0.1577 -0.647507,-0.48373 h -0.55349 c 0.02275,0.61718 0.482219,0.96443 1.205547,0.96443 0.744557,0 1.176734,-0.37152 1.178251,-0.91894 -0.0015,-0.53833 -0.445825,-0.78398 -0.91288,-0.89468 l -0.29115,-0.0728 c -0.254757,-0.0607 -0.530744,-0.16832 -0.527711,-0.42763 0.0015,-0.23353 0.210781,-0.40488 0.562588,-0.40488 0.335127,0 0.556523,0.15619 0.585335,0.42005 z" />
        <path
           id="path837"
           style="font-style:normal;font-variant:normal;font-weight:600;font-stretch:normal;font-size:4.27021217px;font-family:Inter;-inkscape-font-specification:'Inter, Semi-Bold';font-variant-ligatures:normal;font-variant-caps:normal;font-variant-numeric:normal;font-feature-settings:normal;text-align:start;writing-mode:lr-tb;text-anchor:start;fill:#1082a7;fill-opacity:1;stroke-width:0.10787255"
           d="m 14.882812,293.38535 h 0.562589 v -1.13731 h 0.573203 l 0.609597,1.13731 h 0.627794 l -0.67177,-1.23133 c 0.365455,-0.14709 0.558039,-0.45947 0.558039,-0.88103 0,-0.59292 -0.382135,-0.99325 -1.094848,-0.99325 h -1.164604 z m 0.562589,-1.60437 v -1.03116 h 0.515579 c 0.420046,0 0.608081,0.19259 0.608081,0.52317 0,0.33057 -0.188035,0.50799 -0.605048,0.50799 z" />
        <path
           id="path839"
           style="font-style:normal;font-variant:normal;font-weight:600;font-stretch:normal;font-size:4.27021217px;font-family:Inter;-inkscape-font-specification:'Inter, Semi-Bold';font-variant-ligatures:normal;font-variant-caps:normal;font-variant-numeric:normal;font-feature-settings:normal;text-align:start;writing-mode:lr-tb;text-anchor:start;fill:#1082a7;fill-opacity:1;stroke-width:0.10787255"
           d="m 20.435149,291.83254 c 0,-1.00386 -0.61263,-1.59526 -1.426942,-1.59526 -0.815829,0 -1.426943,0.5914 -1.426943,1.59526 0,1.00235 0.611114,1.59526 1.426943,1.59526 0.814312,0 1.426942,-0.5914 1.426942,-1.59526 z m -0.565621,0 c 0,0.70665 -0.35484,1.0903 -0.861321,1.0903 -0.504965,0 -0.861321,-0.38365 -0.861321,-1.0903 0,-0.70665 0.356356,-1.0903 0.861321,-1.0903 0.506481,0 0.861321,0.38365 0.861321,1.0903 z" />
        <path
           id="path842"
           style="font-style:normal;font-variant:normal;font-weight:600;font-stretch:normal;font-size:4.27021217px;font-family:Inter;-inkscape-font-specification:'Inter, Semi-Bold';font-variant-ligatures:normal;font-variant-caps:normal;font-variant-numeric:normal;font-feature-settings:normal;text-align:start;writing-mode:lr-tb;text-anchor:start;fill:#1082a7;fill-opacity:1;stroke-width:0.10787255"
           d="m 21.203211,293.38535 0.256274,-0.76579 h 1.167636 l 0.25779,0.76579 h 0.600498 l -1.094848,-3.10561 h -0.694516 l -1.093332,3.10561 z m 0.407915,-1.21768 0.420046,-1.25104 h 0.02426 l 0.420046,1.25104 z" />
        <path
           id="path844"
           style="font-style:normal;font-variant:normal;font-weight:600;font-stretch:normal;font-size:4.27021217px;font-family:Inter;-inkscape-font-specification:'Inter, Semi-Bold';font-variant-ligatures:normal;font-variant-caps:normal;font-variant-numeric:normal;font-feature-settings:normal;text-align:start;writing-mode:lr-tb;text-anchor:start;fill:#1082a7;fill-opacity:1;stroke-width:0.10787255"
           d="m 24.951021,293.38535 c 0.94624,0 1.507312,-0.58534 1.507312,-1.55584 0,-0.96747 -0.561072,-1.54977 -1.486083,-1.54977 h -1.073618 v 3.10561 z m -0.489801,-0.48677 v -2.13208 h 0.479186 c 0.630827,0 0.959888,0.35181 0.959888,1.06301 0,0.71423 -0.329061,1.06907 -0.976569,1.06907 z" />
      </g>
      <g
         id="text832-4"
         style="font-style:normal;font-variant:normal;font-weight:600;font-stretch:normal;font-size:3.20265913px;line-height:1.25;font-family:Inter;-inkscape-font-specification:'Inter, Semi-Bold';font-variant-ligatures:normal;font-variant-caps:normal;font-variant-numeric:normal;font-feature-settings:normal;text-align:start;letter-spacing:0px;word-spacing:0px;writing-mode:lr-tb;text-anchor:start;fill:#1082a7;fill-opacity:1;stroke:none;stroke-width:0.07987545"
         aria-label="CHURCH">
        <path
           id="path847"
           style="font-style:normal;font-variant:normal;font-weight:600;font-stretch:normal;font-size:3.20265913px;font-family:Inter;-inkscape-font-specification:'Inter, Semi-Bold';font-variant-ligatures:normal;font-variant-caps:normal;font-variant-numeric:normal;font-feature-settings:normal;text-align:start;writing-mode:lr-tb;text-anchor:start;fill:#1082a7;fill-opacity:1;stroke-width:0.07987545"
           d="m 8.4979646,295.42143 c -0.07165,-0.51748 -0.4697082,-0.81773 -0.986046,-0.81773 -0.6084598,0 -1.0667949,0.44355 -1.0667949,1.19645 0,0.75176 0.4526486,1.19645 1.0667949,1.19645 0.5538689,0 0.9212194,-0.35826 0.986046,-0.80294 l -0.4253532,-0.002 c -0.053453,0.27296 -0.2763658,0.42649 -0.5550063,0.42649 -0.3775862,0 -0.6482655,-0.28319 -0.6482655,-0.81772 0,-0.52544 0.2684047,-0.81773 0.6494028,-0.81773 0.2831897,0 0.5049647,0.16036 0.553869,0.43901 z" />
        <path
           id="path849"
           style="font-style:normal;font-variant:normal;font-weight:600;font-stretch:normal;font-size:3.20265913px;font-family:Inter;-inkscape-font-specification:'Inter, Semi-Bold';font-variant-ligatures:normal;font-variant-caps:normal;font-variant-numeric:normal;font-feature-settings:normal;text-align:start;writing-mode:lr-tb;text-anchor:start;fill:#1082a7;fill-opacity:1;stroke-width:0.07987545"
           d="m 8.8874925,296.96475 h 0.4219413 v -0.98946 h 1.0793052 v 0.98946 h 0.423079 v -2.3292 h -0.423079 v 0.98604 H 9.3094338 v -0.98604 H 8.8874925 Z" />
        <path
           id="path851"
           style="font-style:normal;font-variant:normal;font-weight:600;font-stretch:normal;font-size:3.20265913px;font-family:Inter;-inkscape-font-specification:'Inter, Semi-Bold';font-variant-ligatures:normal;font-variant-caps:normal;font-variant-numeric:normal;font-feature-settings:normal;text-align:start;writing-mode:lr-tb;text-anchor:start;fill:#1082a7;fill-opacity:1;stroke-width:0.07987545"
           d="m 12.738986,294.63555 v 1.48646 c 0,0.29229 -0.203578,0.50155 -0.523162,0.50155 -0.320721,0 -0.523161,-0.20926 -0.523161,-0.50155 v -1.48646 h -0.421942 v 1.52171 c 0,0.50042 0.375312,0.84275 0.945103,0.84275 0.567517,0 0.945103,-0.34233 0.945103,-0.84275 v -1.52171 z" />
        <path
           id="path853"
           style="font-style:normal;font-variant:normal;font-weight:600;font-stretch:normal;font-size:3.20265913px;font-family:Inter;-inkscape-font-specification:'Inter, Semi-Bold';font-variant-ligatures:normal;font-variant-caps:normal;font-variant-numeric:normal;font-feature-settings:normal;text-align:start;writing-mode:lr-tb;text-anchor:start;fill:#1082a7;fill-opacity:1;stroke-width:0.07987545"
           d="m 13.622674,296.96475 h 0.421941 v -0.85298 h 0.429903 l 0.457197,0.85298 h 0.470846 l -0.503828,-0.92349 c 0.274092,-0.11032 0.41853,-0.34461 0.41853,-0.66078 0,-0.44469 -0.286602,-0.74493 -0.821137,-0.74493 h -0.873452 z m 0.421941,-1.20327 v -0.77337 H 14.4313 c 0.315034,0 0.45606,0.14444 0.45606,0.39237 0,0.24794 -0.141026,0.381 -0.453786,0.381 z" />
        <path
           id="path855"
           style="font-style:normal;font-variant:normal;font-weight:600;font-stretch:normal;font-size:3.20265913px;font-family:Inter;-inkscape-font-specification:'Inter, Semi-Bold';font-variant-ligatures:normal;font-variant-caps:normal;font-variant-numeric:normal;font-feature-settings:normal;text-align:start;writing-mode:lr-tb;text-anchor:start;fill:#1082a7;fill-opacity:1;stroke-width:0.07987545"
           d="m 17.699354,295.42143 c -0.07165,-0.51748 -0.469708,-0.81773 -0.986046,-0.81773 -0.60846,0 -1.066795,0.44355 -1.066795,1.19645 0,0.75176 0.452649,1.19645 1.066795,1.19645 0.553869,0 0.921219,-0.35826 0.986046,-0.80294 l -0.425353,-0.002 c -0.05345,0.27296 -0.276366,0.42649 -0.555007,0.42649 -0.377586,0 -0.648265,-0.28319 -0.648265,-0.81772 0,-0.52544 0.268405,-0.81773 0.649403,-0.81773 0.283189,0 0.504964,0.16036 0.553869,0.43901 z" />
        <path
           id="path857"
           style="font-style:normal;font-variant:normal;font-weight:600;font-stretch:normal;font-size:3.20265913px;font-family:Inter;-inkscape-font-specification:'Inter, Semi-Bold';font-variant-ligatures:normal;font-variant-caps:normal;font-variant-numeric:normal;font-feature-settings:normal;text-align:start;writing-mode:lr-tb;text-anchor:start;fill:#1082a7;fill-opacity:1;stroke-width:0.07987545"
           d="m 18.088882,296.96475 h 0.421942 v -0.98946 h 1.079305 v 0.98946 h 0.423078 v -2.3292 h -0.423078 v 0.98604 h -1.079305 v -0.98604 h -0.421942 z" />
      </g>
    </g>
  </g>
</svg>
